# xmcd
#
# Track frame offsets: 
#        150
#        15255
#        25357
#        35762
#        48932
#        62430
#        72797
#        85757
#        97712
#        108490
#        119512
#        129932
#        140985
#        153950
#        167787
#        180712
#        193630
#        206747
#        219595
#        230950
#        242197
#        257475
#        269952
#        280665
#        292765
#
# Disc length: 4090 seconds
#
# Revision: 0
# Processed by: cddbd v1.5.1PL0 Copyright (c) Steve Scherf et al.
# Submitted via: ExactAudioCopy v0.95a5
#
DISCID=6e0ff819
DTITLE=Various Artist - 25 Classic Doo Wop Ballads
DYEAR=2004
DGENRE=Doo Wop
TTITLE0=The Flamingos - I Only Have Eyes For You
TTITLE1=The Capris - There's A Moon Out Tonight
TTITLE2=The Dubs - Could This Be Magic
TTITLE3=The Penguins - Earth Angel (Will You Be Mine)
TTITLE4=The Harp-Tones featuring Willie Winfield - A Sunday Kind Of Lo
TTITLE4=ve
TTITLE5=The Classics - Till Then
TTITLE6=Rochell And The Candies with Johnny Wyatt - Once Upon A Time
TTITLE7=Dion and The Belmonts - Where Or When
TTITLE8=The Jaguars - The Way You Look Tonight
TTITLE9=The Pentagons - To Be Loved (Forever)
TTITLE10=Little Anthony And The Imperials - Tears On My Pillow
TTITLE11=The Dreamlovers - When We Get Married
TTITLE12=The Crests - 16 Candles
TTITLE13=The Five Satins - In The Still Of The Night
TTITLE14=Don Julian and The Meadowlarks - Heaven And Paradise
TTITLE15=Ronnie And The Hi-Lites - I Wish That We Were Married
TTITLE16=The Dells - Oh What A Night
TTITLE17=The Quin-Tones - Down The Aisle Of Love
TTITLE18=The Slades - You Cheated
TTITLE19=The Chimes - I'm In The Mood For Love
TTITLE20=The Jesters - The Wind
TTITLE21=The Duprees - You Belong To Me
TTITLE22=The Velours - Can I Come Over Tonight
TTITLE23=The Skyliners - Since I Don't Have You
TTITLE24=Jessie Belvin - Goodnight My Love (Pleasant Dreams)
EXTD=
EXTT0=
EXTT1=
EXTT2=
EXTT3=
EXTT4=
EXTT5=
EXTT6=
EXTT7=
EXTT8=
EXTT9=
EXTT10=
EXTT11=
EXTT12=
EXTT13=
EXTT14=
EXTT15=
EXTT16=
EXTT17=
EXTT18=
EXTT19=
EXTT20=
EXTT21=
EXTT22=
EXTT23=
EXTT24=
PLAYORDER=
